<svg enable-background="new 0 0 96 96" fill="#fff" height="96" viewBox="0 0 96 96" width="96" xmlns="http://www.w3.org/2000/svg"><path d="m52 84v-62.344l21.457 21.456c1.561 1.562 4.095 1.562 5.656.001 1.562-1.562 1.562-4.096 0-5.658l-28.284-28.283c-.186-.186-.391-.352-.609-.498-.101-.067-.21-.114-.315-.172-.124-.066-.242-.142-.373-.195-.135-.057-.275-.089-.415-.129-.111-.033-.216-.076-.331-.099-.259-.052-.522-.079-.785-.079-.003 0-.006.001-.009.001-.259.001-.519.027-.774.078-.12.024-.231.069-.349.104-.133.039-.268.069-.397.123-.139.058-.265.136-.396.208-.098.054-.198.097-.292.159-.221.146-.427.314-.614.501l-28.281 28.282c-1.562 1.562-1.562 4.095-.001 5.657 1.562 1.562 4.094 1.562 5.658 0l21.454-21.456v62.343c0 2.209 1.791 4 4 4s4-1.791 4-4z"/></svg>