<svg version="1.0" xmlns="http://www.w3.org/2000/svg"  viewBox="0 0 507.873558 421.820275"  ><g transform="translate(-42.884887,489.857142) scale(0.100000,-0.100000)" fill="#000000" stroke="none"><path fill="#8393d6" d="M4806 4885 c-13 -14 -16 -44 -16 -179 0 -143 2 -165 18 -178 13 -12 54 -17 168 -22 139 -5 153 -4 168 13 14 16 16 42 14 197 l-3 179 -167 3 c-141 2 -168 0 -182 -13z"/><path fill="#8393d6" d="M3661 4666 c-15 -18 -3 -46 19 -46 25 0 33 16 20 40 -13 23 -23 25 -39 6z"/><path fill="#8393d6" d="M4102 4524 c-21 -15 -22 -21 -22 -193 0 -236 -15 -221 222 -221 157 0 177 2 191 18 15 16 17 46 17 205 0 174 -1 187 -19 197 -12 6 -93 10 -193 10 -141 0 -178 -3 -196 -16z"/><path fill="#8393d6" d="M3356 4363 c-11 -28 5 -221 19 -226 6 -3 61 -4 121 -4 l109 2 3 123 3 122 -125 0 c-108 0 -125 -2 -130 -17z"/><path fill="#8393d6" d="M2810 4123 c-59 -8 -278 -57 -286 -65 -2 -3 2 -28 9 -57 12 -51 13 -52 42 -47 17 3 92 13 168 23 l138 17 -3 65 c-3 71 -4 72 -68 64z"/><path fill="#8393d6" d="M3077 4099 c-10 -35 -8 -94 2 -122 11 -29 47 -44 126 -51 33 -3 86 -8 117 -12 l57 -7 6 39 c3 22 8 51 10 66 4 24 -1 31 -38 50 -61 33 -111 46 -197 54 -75 6 -77 6 -83 -17z"/><path fill="#8393d6" d="M3774 3990 c-9 -9 -8 -378 1 -388 2 -2 77 -3 167 -3 113 1 167 6 175 14 13 13 21 357 8 377 -8 14 -337 14 -351 0z"/><path fill="#8393d6" d="M4510 3985 c-15 -18 -10 -279 6 -295 6 -6 69 -12 147 -13 115 -3 140 -1 150 12 10 12 12 50 8 161 l-6 145 -146 3 c-121 2 -148 0 -159 -13z"/><path fill="#8393d6" d="M2244 3932 c-56 -32 -115 -69 -133 -81 -31 -23 -32 -24 -25 -84 12 -111 22 -115 132 -53 33 19 74 37 90 41 17 3 37 14 45 23 22 26 30 136 12 178 -8 18 -15 34 -17 34 -2 0 -49 -26 -104 -58z"/><path fill="#8393d6" d="M3536 3965 c-10 -27 -7 -100 5 -112 26 -26 -2 -35 -81 -28 -77 7 -79 6 -95 -19 l-18 -27 -146 3 -146 3 4 82 c4 109 18 106 -249 64 -84 -13 -90 -18 -90 -62 l0 -40 -64 7 c-66 7 -191 -9 -213 -28 -8 -6 -13 -36 -13 -77 0 -36 -4 -71 -8 -78 -4 -6 -34 -17 -67 -23 -78 -13 -193 -44 -202 -54 -4 -4 -10 -33 -13 -64 l-5 -57 -72 -5 c-46 -3 -78 -11 -87 -20 -26 -27 -56 -140 -56 -210 l0 -66 -66 -11 c-59 -10 -69 -10 -97 8 -21 12 -50 19 -84 19 -45 0 -52 -3 -58 -22 -4 -13 -17 -59 -30 -103 -49 -169 -74 -380 -80 -680 0 -32 314 -146 528 -192 117 -26 135 -27 447 -27 213 -1 353 3 408 12 45 6 119 17 165 23 371 47 696 126 1002 244 140 54 417 190 441 216 16 17 16 34 6 181 -8 115 -18 185 -35 238 -22 72 -24 75 -60 84 -31 8 -42 6 -65 -11 -15 -12 -26 -25 -25 -30 1 -4 6 -42 12 -83 5 -41 14 -76 19 -78 34 -11 41 -29 44 -107 l3 -80 -57 -3 -58 -3 0 83 c0 67 -4 88 -20 108 -15 19 -20 42 -21 95 -1 106 -13 185 -30 196 -8 5 -30 9 -50 9 -49 0 -65 21 -104 132 l-32 93 -69 2 c-38 2 -84 5 -101 8 -30 5 -33 9 -33 40 l0 34 -70 7 c-41 4 -70 11 -70 18 0 6 -5 65 -10 131 -8 111 -8 123 10 153 11 18 20 37 20 42 0 12 -97 70 -129 76 -21 4 -30 1 -35 -11z m-576 -294 c0 -50 -4 -83 -12 -87 -6 -4 -56 -9 -110 -12 l-98 -5 0 92 0 91 110 0 110 0 0 -79z m518 -239 l3 -103 -108 3 -108 3 -3 89 c-2 49 0 96 2 103 4 11 29 13 108 11 l103 -3 3 -103z m-941 80 c16 -10 15 -168 -1 -180 -6 -5 -48 -12 -93 -15 -93 -7 -110 2 -88 43 8 14 14 52 15 86 0 33 3 64 7 67 9 10 145 8 160 -1z m1247 -289 c-1 -7 -2 -47 -2 -88 l-2 -75 -60 0 -60 0 0 84 0 85 43 4 c63 6 82 3 81 -10z m211 -89 c5 -59 4 -79 -7 -86 -15 -10 -97 -4 -107 8 -4 5 -5 42 -3 82 l4 72 53 0 53 0 7 -76z m-1931 -71 l1 -73 -67 0 -68 0 0 73 0 73 66 -1 66 0 2 -72z m-298 -79 c-3 -8 -10 -14 -16 -14 -14 0 -13 67 3 93 11 20 12 19 15 -22 2 -24 1 -50 -2 -57z m-26 -143 c0 -62 -4 -90 -12 -93 -28 -11 -33 4 -30 80 4 91 7 102 27 102 12 0 15 -16 15 -89z"/><path fill="#8393d6" d="M1867 3617 c-59 -69 -187 -266 -187 -288 0 -12 13 -18 51 -23 48 -7 54 -5 81 21 17 15 39 45 49 66 11 21 26 40 34 43 7 3 17 24 20 47 4 23 17 61 30 85 23 41 23 44 7 72 -9 16 -22 30 -28 30 -6 0 -32 -24 -57 -53z"/><path fill="#8393d6" d="M4144 3558 c-16 -12 -33 -25 -38 -29 -5 -5 13 -42 42 -86 28 -43 56 -90 63 -105 11 -26 17 -28 69 -28 94 0 97 7 48 131 l-41 106 -52 17 c-64 20 -57 20 -91 -6z"/><path fill="#8393d6" d="M4810 3525 c0 -4 30 -20 67 -37 91 -41 171 -97 225 -157 70 -78 83 -111 83 -216 0 -80 -3 -96 -28 -141 -84 -151 -324 -337 -612 -474 -95 -46 -390 -168 -485 -203 -50 -18 -229 -70 -335 -97 -250 -65 -662 -124 -1065 -151 -170 -12 -219 -22 -186 -41 45 -25 449 -57 721 -58 477 0 887 67 1320 215 189 65 400 163 535 250 251 161 405 338 446 510 63 272 -130 482 -531 575 -107 24 -155 32 -155 25z"/><path fill="#8393d6" d="M1457 3260 c-122 -45 -280 -124 -351 -174 -90 -65 -178 -163 -218 -243 -29 -59 -33 -79 -36 -160 -5 -116 20 -200 85 -291 213 -299 762 -586 1418 -742 414 -98 671 -130 1055 -130 248 0 530 17 660 39 380 65 566 119 839 243 196 89 347 234 391 375 19 63 29 231 14 246 -4 3 -37 -20 -74 -53 -140 -120 -501 -297 -735 -360 -337 -91 -529 -126 -890 -161 -171 -17 -696 -17 -840 -1 -265 31 -485 70 -660 117 -49 13 -119 31 -155 40 -226 53 -607 211 -761 316 -90 61 -191 161 -225 221 -107 195 65 434 468 652 75 41 128 79 128 91 0 11 -40 2 -113 -25z"/><path fill="#8393d6" d="M731 2972 c-108 -60 -205 -155 -248 -242 -92 -188 -67 -376 80 -595 60 -88 267 -290 382 -371 382 -270 891 -463 1500 -568 50 -9 131 -23 180 -32 123 -22 636 -31 795 -14 118 12 304 39 445 64 151 26 440 121 545 179 90 49 243 178 229 192 -3 2 -28 -4 -55 -14 -90 -35 -380 -103 -504 -120 -41 -6 -111 -15 -155 -21 -233 -31 -707 -36 -975 -10 -415 41 -777 128 -1160 277 -630 247 -1012 558 -1086 884 -25 112 6 253 83 368 24 35 43 65 43 67 0 10 -21 0 -99 -44z"/><path fill="#8393d6" d="M580 1849 c0 -182 134 -345 389 -473 79 -40 267 -107 368 -131 200 -47 323 -72 438 -90 55 -8 128 -20 163 -25 82 -14 510 -25 548 -15 l29 8 -30 13 c-16 7 -48 13 -70 14 -22 0 -89 12 -150 25 -60 14 -153 34 -205 45 -206 43 -486 120 -665 183 -305 108 -568 258 -723 414 -46 46 -85 83 -87 83 -3 0 -5 -23 -5 -51z"/><path fill="#8393d6" d="M4180 1229 c-66 -27 -363 -90 -516 -110 -43 -6 -108 -14 -144 -19 -36 -5 -112 -14 -170 -20 -58 -6 -123 -13 -145 -15 -22 -3 -87 -10 -145 -15 -58 -6 -172 -18 -255 -27 -103 -11 -240 -16 -435 -16 -302 1 -389 8 -670 59 -80 14 -165 28 -190 31 l-45 4 25 -20 c54 -43 231 -143 347 -196 137 -62 264 -106 398 -140 83 -21 129 -29 322 -55 105 -15 361 -12 493 4 347 44 624 136 887 297 118 72 283 210 283 236 0 15 -6 15 -40 2z"/></g></svg>