<svg version="1.0" xmlns="http://www.w3.org/2000/svg"  viewBox="0 0 948.045895 232.654209"  ><g transform="translate(-290.954105,667.841194) scale(0.100000,-0.100000)" fill="#000000" stroke="none"><path fill="#ffffff" d="M5322 6668 c-18 -18 -16 -182 2 -197 9 -8 46 -11 103 -9 l88 3 0 105 0 105 -90 3 c-62 2 -94 -1 -103 -10z"/><path fill="#ffffff" d="M4685 6541 c-7 -12 12 -24 25 -16 11 7 4 25 -10 25 -5 0 -11 -4 -15 -9z"/><path fill="#ffffff" d="M4931 6467 c-15 -15 -15 -199 1 -215 13 -13 183 -17 212 -6 13 5 16 25 16 115 0 60 -3 109 -7 109 -185 8 -211 8 -222 -3z"/><path fill="#ffffff" d="M4522 6323 l3 -68 68 -3 67 -3 0 71 0 70 -70 0 -71 0 3 -67z"/><path fill="#ffffff" d="M4140 6231 c-74 -16 -75 -17 -72 -46 2 -16 4 -30 5 -31 1 -1 44 3 95 9 l92 11 0 38 c0 45 -4 45 -120 19z"/><path fill="#ffffff" d="M4367 6221 c-8 -38 1 -69 22 -75 9 -2 46 -7 82 -11 l67 -6 4 37 c4 35 2 38 -36 54 -23 10 -62 20 -87 23 -45 6 -47 5 -52 -22z"/><path fill="#ffffff" d="M4750 6176 c-3 -2 -3 -53 0 -112 l5 -107 90 2 c50 1 94 6 98 10 4 4 6 52 5 107 l-3 99 -95 3 c-53 1 -98 1 -100 -2z"/><path fill="#ffffff" d="M5157 6173 c-2 -5 -2 -14 -1 -20 1 -7 2 -44 3 -83 l1 -70 85 0 85 0 0 90 0 90 -84 0 c-47 0 -87 -3 -89 -7z"/><path fill="#ffffff" d="M3888 6129 c-59 -35 -68 -44 -68 -69 0 -35 9 -60 22 -60 6 0 39 14 75 31 l64 30 -3 51 c-2 28 -7 53 -13 55 -5 1 -40 -15 -77 -38z"/><path fill="#ffffff" d="M4622 6125 l6 -45 -49 0 c-26 0 -51 -4 -54 -10 -3 -5 -44 -10 -89 -10 l-84 0 6 45 c6 56 0 58 -103 42 -74 -12 -80 -15 -83 -37 -3 -24 -6 -25 -55 -22 -29 2 -64 -1 -79 -7 -25 -9 -28 -16 -28 -56 0 -42 -2 -45 -27 -46 -16 0 -50 -8 -78 -17 -45 -15 -50 -20 -53 -49 -3 -30 -6 -33 -36 -33 -18 0 -39 -6 -48 -12 -20 -17 -38 -72 -38 -118 0 -35 -2 -38 -36 -45 -22 -4 -41 -2 -47 4 -6 6 -27 11 -47 11 -36 0 -37 -1 -52 -57 -26 -92 -37 -170 -41 -287 l-4 -109 55 -24 c212 -94 477 -114 824 -64 286 42 525 115 716 219 l64 35 -8 96 c-10 144 -38 203 -81 175 -21 -14 -20 -93 2 -109 7 -6 16 -32 20 -58 l7 -47 -36 0 -36 0 0 49 c0 28 -4 53 -10 56 -5 3 -10 32 -10 63 0 85 -7 100 -44 104 -28 3 -33 9 -55 66 l-25 62 -53 0 c-46 0 -53 3 -53 19 0 15 -10 21 -40 26 l-40 7 -2 51 c-3 79 -2 101 6 119 6 13 0 22 -26 38 -52 31 -61 27 -56 -25z m-320 -133 l-4 -47 -59 -3 -59 -3 0 50 0 51 63 0 62 0 -3 -48z m251 -72 l37 0 0 -55 0 -55 -60 0 -60 0 0 61 c0 59 1 61 23 55 12 -3 39 -6 60 -6z m-476 -59 c-2 -55 -9 -61 -81 -61 -33 0 -37 3 -30 18 4 9 9 34 12 55 l4 37 48 0 48 0 -1 -49z m683 -151 l0 -50 -35 0 -35 0 0 50 0 50 35 0 35 0 0 -50z m113 -7 c8 -45 3 -53 -34 -53 -28 0 -29 2 -29 45 0 43 1 45 29 45 25 0 29 -4 34 -37z m-1063 -43 l0 -40 -40 0 -40 0 0 40 0 40 40 0 40 0 0 -40z m-160 -20 c0 -16 -4 -30 -10 -30 -11 0 -14 43 -3 53 11 12 13 8 13 -23z m-20 -100 c0 -33 -4 -50 -12 -50 -9 0 -12 15 -10 50 5 65 22 65 22 0z"/><path fill="#ffffff" d="M3700 5968 c-41 -51 -100 -142 -100 -154 0 -12 49 -26 62 -18 13 8 68 95 68 107 0 7 6 24 14 38 10 20 11 29 1 42 -16 22 -15 22 -45 -15z"/><path fill="#ffffff" d="M7022 5958 c-7 -7 -12 -39 -12 -73 0 -34 5 -66 12 -73 7 -7 41 -12 85 -12 61 0 74 3 83 19 14 27 13 124 -2 139 -7 7 -41 12 -83 12 -42 0 -76 -5 -83 -12z"/><path fill="#ffffff" d="M8067 5964 c-4 -4 -7 -43 -7 -86 l0 -78 78 0 c42 0 83 4 90 9 9 5 12 29 10 82 l-3 74 -80 3 c-45 1 -84 0 -88 -4z"/><path fill="#ffffff" d="M9510 5520 l0 -440 90 0 90 0 0 440 0 440 -90 0 -90 0 0 -440z"/><path fill="#ffffff" d="M4953 5932 l-22 -17 36 -57 c34 -54 38 -58 74 -58 22 0 39 3 39 7 0 4 -10 33 -22 65 -18 45 -29 60 -52 68 -34 12 -27 13 -53 -8z"/><path fill="#ffffff" d="M6130 5511 l0 -431 188 0 c262 0 362 25 463 117 185 167 165 528 -37 662 -104 68 -136 75 -386 79 l-228 4 0 -431z m410 258 c105 -24 169 -104 178 -219 10 -137 -37 -232 -136 -278 -50 -23 -71 -26 -162 -27 l-105 0 -3 255 c-1 140 0 260 3 267 6 16 159 17 225 2z"/><path fill="#ffffff" d="M9840 5510 l0 -430 90 0 90 0 2 278 3 277 120 -164 c66 -91 156 -214 201 -275 l81 -111 86 -3 87 -3 0 431 0 430 -90 0 -90 0 -2 -275 -3 -275 -135 184 c-74 100 -164 224 -200 274 l-65 91 -87 1 -88 0 0 -430z"/><path fill="#ffffff" d="M5358 5899 c90 -37 167 -117 172 -179 6 -65 -1 -90 -39 -141 -75 -99 -230 -196 -473 -297 -229 -95 -530 -157 -871 -178 -59 -4 -110 -10 -112 -15 -22 -35 455 -52 684 -24 549 68 991 326 991 577 0 107 -80 190 -231 241 -42 14 -98 28 -125 31 l-49 6 53 -21z"/><path fill="#ffffff" d="M8423 5863 c-9 -3 -13 -30 -13 -84 l0 -79 -50 0 -50 0 0 -70 0 -70 50 0 50 0 0 -170 c0 -218 15 -260 105 -301 46 -21 163 -26 215 -8 l32 12 -7 61 c-3 33 -8 63 -11 67 -2 3 -21 2 -43 -4 -48 -13 -93 3 -110 39 -6 15 -11 82 -11 164 l0 140 85 0 85 0 0 70 0 70 -85 0 -85 0 0 85 0 85 -72 -1 c-40 0 -79 -3 -85 -6z"/><path fill="#ffffff" d="M12073 5863 l-43 -4 0 -79 0 -79 -47 -3 -48 -3 1 -65 1 -65 46 -3 45 -3 4 -177 c3 -199 9 -217 81 -275 33 -27 46 -31 121 -35 97 -5 156 9 156 38 0 11 -5 41 -10 68 l-11 49 -49 -10 c-41 -8 -54 -7 -75 7 -39 25 -45 54 -45 202 l0 134 90 0 90 0 0 70 0 70 -90 0 -90 0 0 85 0 85 -42 -2 c-24 -1 -62 -3 -85 -5z"/><path fill="#ffffff" d="M3459 5766 c-214 -87 -319 -191 -319 -317 0 -31 5 -71 11 -90 56 -166 391 -369 765 -463 282 -71 457 -91 723 -83 517 15 905 167 960 375 11 38 13 122 3 122 -2 0 -22 -15 -45 -34 -96 -78 -299 -169 -484 -216 -411 -104 -847 -102 -1274 6 -356 90 -609 244 -609 371 0 87 90 189 248 282 127 73 135 93 21 47z"/><path fill="#ffffff" d="M7517 5709 c-96 -23 -173 -91 -204 -183 -25 -77 -23 -207 6 -271 29 -65 74 -112 136 -141 85 -41 207 -28 266 27 15 14 30 25 32 22 5 -4 -1 -74 -8 -109 -8 -36 -53 -72 -104 -83 -58 -12 -154 1 -218 29 l-43 19 -16 -57 c-9 -31 -19 -62 -21 -68 -7 -18 86 -52 179 -65 76 -11 97 -11 165 4 89 20 158 58 190 106 48 71 53 112 53 448 l0 313 -85 0 -85 0 0 -30 0 -30 -41 29 c-22 16 -63 34 -90 40 -56 12 -60 12 -112 0z m182 -166 c44 -33 63 -80 58 -148 -8 -105 -58 -165 -140 -165 -84 0 -137 56 -144 153 -8 114 59 194 156 184 24 -3 55 -13 70 -24z"/><path fill="#ffffff" d="M10965 5710 c-147 -21 -259 -157 -258 -315 1 -134 65 -240 178 -296 45 -21 63 -24 170 -24 109 0 125 2 178 27 31 15 57 29 57 31 0 7 -49 117 -52 117 -2 0 -27 -9 -56 -20 -113 -43 -244 -16 -283 59 -10 19 -16 38 -13 43 3 4 102 8 221 8 l215 0 -4 88 c-3 73 -9 96 -33 142 -60 109 -177 161 -320 140z m132 -150 c34 -20 46 -38 57 -82 l6 -28 -141 0 c-125 0 -140 2 -135 16 3 9 6 19 6 24 0 15 53 72 74 80 37 15 100 11 133 -10z"/><path fill="#ffffff" d="M8985 5704 c-59 -15 -115 -37 -125 -48 -8 -11 -5 -28 14 -70 l25 -55 28 14 c15 8 59 19 96 25 113 18 170 -9 179 -85 l3 -29 -100 -2 c-108 -2 -195 -21 -232 -53 -91 -77 -82 -232 18 -298 35 -23 55 -29 119 -31 83 -4 134 13 174 57 27 30 36 26 36 -14 l0 -35 80 0 80 0 0 213 c0 244 -9 293 -62 344 -59 56 -93 67 -208 69 -58 2 -114 0 -125 -2z m225 -386 c0 -103 -132 -167 -201 -99 -33 33 -36 56 -13 89 23 33 48 41 137 41 l77 1 0 -32z"/><path fill="#ffffff" d="M11536 5700 c-69 -22 -119 -73 -137 -142 -31 -116 25 -177 207 -227 97 -26 134 -46 134 -72 0 -4 -9 -17 -19 -30 -17 -21 -27 -24 -93 -23 -55 0 -89 7 -138 27 -35 14 -64 25 -65 24 0 -1 -12 -27 -27 -58 l-27 -56 54 -27 c74 -36 142 -49 243 -44 143 5 222 61 238 166 16 106 -43 172 -187 211 -123 33 -149 46 -149 74 0 13 9 32 20 42 25 23 137 17 195 -10 22 -10 44 -19 48 -19 5 -1 19 25 33 57 l23 58 -57 27 c-48 22 -73 27 -162 29 -58 1 -118 -2 -134 -7z"/><path fill="#ffffff" d="M7015 5393 l4 -308 85 -3 86 -3 0 311 0 310 -90 0 -89 0 4 -307z"/><path fill="#ffffff" d="M8060 5390 l0 -310 90 0 90 0 0 310 0 310 -90 0 -90 0 0 -310z"/><path fill="#ffffff" d="M3071 5612 c-62 -36 -113 -89 -140 -147 -34 -73 -27 -177 17 -260 121 -227 460 -432 882 -534 220 -54 325 -66 550 -66 161 0 241 5 320 18 229 40 392 98 480 172 58 48 61 58 11 40 -71 -25 -263 -63 -378 -76 -169 -18 -548 -7 -686 20 -157 30 -261 56 -357 89 -394 134 -643 315 -706 511 -17 52 -17 59 -1 118 9 34 28 80 42 103 29 46 26 47 -34 12z"/><path fill="#ffffff" d="M2990 4994 c0 -56 21 -104 70 -157 99 -108 291 -180 614 -231 128 -20 349 -31 372 -18 15 8 10 11 -31 17 -130 17 -395 82 -544 132 -183 61 -327 141 -428 236 l-53 50 0 -29z"/><path fill="#ffffff" d="M4930 4638 c-184 -52 -680 -108 -961 -108 -148 0 -209 5 -332 25 -83 15 -154 28 -159 31 -4 3 -8 3 -8 0 0 -9 144 -95 205 -122 175 -78 288 -103 490 -111 178 -6 278 6 426 53 90 28 217 88 283 134 54 36 132 107 126 112 -3 2 -34 -4 -70 -14z"/></g></svg>