<svg width="36" height="36" viewBox="0 0 36 36" fill="none" xmlns="http://www.w3.org/2000/svg">
<path d="M18 1C13.3786 1 12.8027 1.02232 10.9941 1.09882C9.17802 1.18809 7.94962 1.46968 6.86573 1.89049C5.73138 2.31884 4.70405 2.98935 3.85529 3.85529C2.98801 4.70295 2.3173 5.7306 1.89049 6.86573C1.46968 7.94962 1.18809 9.17802 1.09882 10.9941C1.017 12.8037 1 13.3786 1 18C1 22.6214 1.02232 23.1973 1.09882 25.0059C1.18809 26.8167 1.46968 28.0504 1.89049 29.1343C2.31884 30.2686 2.98934 31.296 3.85529 32.1447C4.70295 33.012 5.7306 33.6827 6.86573 34.1095C7.94962 34.525 9.18334 34.8119 10.9941 34.9012C12.8037 34.983 13.3786 35 18 35C22.6214 35 23.1973 34.9777 25.0059 34.9012C26.8167 34.8119 28.0504 34.5239 29.1343 34.1095C30.2686 33.6812 31.296 33.0107 32.1447 32.1447C33.0147 31.2993 33.6858 30.271 34.1095 29.1343C34.525 28.0504 34.8119 26.8167 34.9012 25.0059C34.983 23.1963 35 22.6214 35 18C35 13.3786 34.9777 12.8027 34.9012 10.9941C34.8119 9.18334 34.5239 7.94324 34.1095 6.86573C33.6812 5.73138 33.0107 4.70405 32.1447 3.85529C31.2993 2.98529 30.271 2.31416 29.1343 1.89049C28.0504 1.46968 26.8167 1.18809 25.0059 1.09882C23.1963 1.017 22.6214 1 18 1ZM18 4.06038C22.5385 4.06038 23.0804 4.0827 24.8742 4.15921C26.5287 4.23678 27.4298 4.51306 28.0281 4.74684C28.7675 5.02021 29.4369 5.4547 29.9876 6.01881C30.5519 6.56623 30.985 7.23433 31.2542 7.973C31.488 8.57126 31.7643 9.47237 31.8419 11.1269C31.9184 12.9206 31.9407 13.4636 31.9407 18.0011C31.9407 22.5385 31.9184 23.0815 31.8355 24.8752C31.7462 26.5298 31.4699 27.4309 31.2372 28.0291C30.9152 28.8272 30.5561 29.385 29.9631 29.9886C29.4108 30.5494 28.7418 30.9819 28.0036 31.2553C27.4128 31.4891 26.4989 31.7653 24.838 31.8429C23.0348 31.9194 22.5034 31.9417 17.9532 31.9417C13.4031 31.9417 12.8728 31.9194 11.0674 31.8365C9.41286 31.7473 8.50006 31.471 7.9018 31.2383C7.0942 30.9163 6.54057 30.5571 5.94762 29.9642C5.34936 29.3659 4.96893 28.7963 4.67565 28.0047C4.43762 27.4139 4.16558 26.5 4.07738 24.8391C4.01681 23.0571 3.98812 22.5045 3.98812 17.9756C3.98812 13.4487 4.01681 12.8951 4.07738 11.0908C4.16558 9.42987 4.43762 8.51813 4.67565 7.92518C4.96893 7.11651 5.35042 6.56395 5.94762 5.96568C6.53951 5.3738 7.0942 4.99125 7.9018 4.69159C8.50006 4.45887 9.39055 4.18259 11.0514 4.0997C12.8547 4.03488 13.386 4.0115 17.9299 4.0115L18 4.06038ZM18 9.27472C16.8538 9.2743 15.7187 9.49976 14.6597 9.9382C13.6006 10.3766 12.6384 11.0195 11.8279 11.83C11.0174 12.6405 10.3745 13.6028 9.93608 14.6618C9.49763 15.7208 9.27218 16.8559 9.2726 18.0021C9.27218 19.1483 9.49763 20.2834 9.93608 21.3425C10.3745 22.4015 11.0174 23.3638 11.8279 24.1743C12.6384 24.9848 13.6006 25.6276 14.6597 26.066C15.7187 26.5045 16.8538 26.7299 18 26.7295C19.1462 26.7299 20.2813 26.5045 21.3403 26.066C22.3994 25.6276 23.3616 24.9848 24.1721 24.1743C24.9826 23.3638 25.6255 22.4015 26.0639 21.3425C26.5024 20.2834 26.7278 19.1483 26.7274 18.0021C26.7278 16.8559 26.5024 15.7208 26.0639 14.6618C25.6255 13.6028 24.9826 12.6405 24.1721 11.83C23.3616 11.0195 22.3994 10.3766 21.3403 9.9382C20.2813 9.49976 19.1462 9.2743 18 9.27472ZM18 23.6691C14.8674 23.6691 12.333 21.1348 12.333 18.0021C12.333 14.8695 14.8674 12.3351 18 12.3351C21.1326 12.3351 23.667 14.8695 23.667 18.0021C23.667 21.1348 21.1326 23.6691 18 23.6691ZM29.1194 8.92618C29.1188 9.46776 28.9033 9.98698 28.5201 10.3697C28.137 10.7525 27.6175 10.9675 27.0759 10.9675C26.8082 10.9675 26.543 10.9148 26.2956 10.8123C26.0482 10.7098 25.8234 10.5596 25.634 10.3702C25.4447 10.1809 25.2945 9.95607 25.192 9.70867C25.0895 9.46126 25.0368 9.19609 25.0368 8.9283C25.0368 8.66051 25.0895 8.39534 25.192 8.14794C25.2945 7.90053 25.4447 7.67573 25.634 7.48638C25.8234 7.29702 26.0482 7.14681 26.2956 7.04434C26.543 6.94186 26.8082 6.88911 27.0759 6.88911C28.1992 6.88911 29.1194 7.80298 29.1194 8.92618Z" fill="#fff"/>
</svg>
